<?xml version="1.0" encoding="UTF-8"?>
<svg version="1.1" xmlns="http://www.w3.org/2000/svg" width="512" height="512">
<path d="M0 0 C1.42187705 1.19894413 2.81616127 2.43106397 4.1875 3.6875 C5.09113281 4.51121094 5.99476563 5.33492187 6.92578125 6.18359375 C20.83473875 19.45262628 30.71881264 37.61312924 31.50854492 57.12158203 C31.6270848 63.1244668 31.53837419 69.12251004 31.4375 75.125 C31.41738803 77.22459218 31.39914564 79.32420314 31.3828125 81.42382812 C31.33922689 86.51219171 31.27046303 91.59963237 31.1875 96.6875 C31.83187012 96.66655273 32.47624023 96.64560547 33.14013672 96.62402344 C36.11409332 96.53989002 39.08779842 96.48853655 42.0625 96.4375 C43.07570313 96.40398437 44.08890625 96.37046875 45.1328125 96.3359375 C56.67039316 96.1880198 66.43033084 100.43711852 74.90625 108.27734375 C83.96332677 118.09687851 86.05982081 130.02553882 87.42179871 142.83833313 C87.53038548 143.82169228 87.63897226 144.80505144 87.75084955 145.81820935 C88.11109666 149.092247 88.46413979 152.36701926 88.81713867 155.6418457 C89.07480902 157.99810099 89.33289159 160.35431124 89.59135437 162.71047974 C90.29037189 169.09637401 90.98278375 175.48296758 91.67337584 181.86977792 C92.10526291 185.86332518 92.5388983 189.85668136 92.97292519 193.84999657 C94.40976349 207.0718618 95.842089 220.29420551 97.26900049 233.51714573 C97.3457943 234.22877035 97.4225881 234.94039498 97.50170898 235.67358398 C97.57859628 236.38608491 97.65548357 237.09858583 97.73470078 237.83267768 C98.98080461 249.37743171 100.23787825 260.9209617 101.49986442 272.46398935 C102.79785312 284.33757876 104.08731067 296.21206861 105.36807233 308.08752888 C106.08638481 314.74616117 106.80841979 321.40433954 107.53926659 328.06160927 C108.226476 334.3240518 108.90274481 340.58758192 109.57075691 346.85210037 C109.81715731 349.14539146 110.06740221 351.43827338 110.32186127 353.73068428 C114.00407047 386.96243819 114.00407047 386.96243819 104.171875 400.453125 C96.99379196 408.83592127 88.06753856 416.04807806 76.72156763 416.96874142 C72.29419276 417.12073236 67.86664579 417.09744198 63.43731689 417.08190918 C61.71479417 417.08680062 59.99227473 417.0929916 58.26976085 417.10036707 C53.5450957 417.11675781 48.82059751 417.1144504 44.09591389 417.1089921 C38.99691537 417.10632082 33.89796125 417.12085562 28.79898071 417.13308716 C18.8123721 417.15413973 8.82582155 417.15868208 -1.16080663 417.15689927 C-9.2793231 417.15559147 -17.39782147 417.15939674 -25.51633453 417.16682434 C-27.85520275 417.16892355 -30.19407097 417.17102115 -32.5329392 417.17311716 C-33.69708156 417.17416069 -34.86122393 417.17520422 -36.06064335 417.17627937 C-58.07729425 417.19518131 -80.09391183 417.19413178 -102.11056748 417.18731004 C-122.24523435 417.1817356 -142.37977394 417.20255592 -162.51441106 417.23567051 C-183.19396017 417.26941699 -203.87344833 417.28457457 -224.55302548 417.27995348 C-236.16085259 417.27770964 -247.76856209 417.28293948 -259.37636566 417.30784607 C-269.25948923 417.3288716 -279.1424307 417.33243874 -289.02556178 417.31354648 C-294.06608921 417.30439616 -299.10627723 417.30322419 -304.14677811 417.32390213 C-308.76595575 417.3426417 -313.3845167 417.3380752 -318.00367108 417.31535631 C-319.66985339 417.31117807 -321.33608326 417.31534438 -323.00221524 417.32895225 C-336.80043875 417.43392365 -347.42651772 414.94933357 -357.62109375 405.08203125 C-365.60708264 396.35580809 -369.33295186 387.44175183 -369.8125 375.6875 C-369.63459791 371.81041768 -369.18525098 367.98624887 -368.7043457 364.13623047 C-368.57436691 363.02549667 -368.44438812 361.91476288 -368.31047058 360.77037048 C-367.87997589 357.11384619 -367.43424968 353.45935407 -366.98828125 349.8046875 C-366.68163966 347.2277389 -366.37592618 344.65067972 -366.0710907 342.07351685 C-365.34717461 335.97339943 -364.61357912 329.87451739 -363.87533015 323.77612031 C-363.05075892 316.95975055 -362.23926723 310.14184467 -361.42862916 303.32380629 C-359.97572244 291.10585799 -358.50314305 278.89038215 -357.01709175 266.6764183 C-356.28394625 260.63554281 -355.56486091 254.59358022 -354.87773991 248.54729271 C-354.53606751 245.5455094 -354.1854585 242.54481286 -353.8332119 239.5442543 C-353.61748053 237.67442341 -353.41531006 235.80304247 -353.21394348 233.93161011 C-351.47430045 219.27574758 -346.36772545 209.06194637 -335.1875 199.44921875 C-328.927436 194.80565154 -322.14092459 192.55976986 -314.3961792 192.56724548 C-313.29684052 192.56587082 -312.19750183 192.56449615 -311.06484985 192.56307983 C-309.86363495 192.56667511 -308.66242004 192.57027039 -307.42480469 192.57397461 C-305.52198227 192.57375557 -305.52198227 192.57375557 -303.58071899 192.5735321 C-300.10584589 192.57324526 -296.63100732 192.57912383 -293.15614223 192.58610606 C-289.5233064 192.5923583 -285.89046978 192.59294488 -282.25762939 192.59413147 C-275.37997412 192.59723926 -268.50233475 192.60544523 -261.62468648 192.61548096 C-253.79403149 192.62665922 -245.96337573 192.63215687 -238.13271475 192.63717639 C-222.02596719 192.64762829 -205.91923563 192.66521706 -189.8125 192.6875 C-189.74640219 191.74209414 -189.68030437 190.79668827 -189.6122036 189.82263374 C-189.52412752 188.57398474 -189.43605145 187.32533573 -189.3453064 186.03884888 C-189.25858358 184.80469301 -189.17186077 183.57053715 -189.08250999 182.29898262 C-188.71742449 177.41583018 -188.24156478 172.54898401 -187.7265625 167.6796875 C-187.62411224 166.70693878 -187.52166199 165.73419006 -187.41610718 164.73196411 C-187.20070425 162.70022689 -186.98387017 160.66864091 -186.765625 158.63720703 C-186.43747782 155.56229212 -186.12106858 152.48630107 -185.8046875 149.41015625 C-182.25398709 115.73746796 -182.25398709 115.73746796 -168.06640625 104.1875 C-161.59237586 99.87895984 -154.30615174 96.5466511 -146.48828125 96.58984375 C-145.46025391 96.59306641 -144.43222656 96.59628906 -143.37304688 96.59960938 C-141.76526367 96.61217773 -141.76526367 96.61217773 -140.125 96.625 C-139.04154297 96.62951172 -137.95808594 96.63402344 -136.84179688 96.63867188 C-134.16530915 96.65046257 -131.48893223 96.66691937 -128.8125 96.6875 C-128.83344727 95.40286865 -128.85439453 94.1182373 -128.87597656 92.79467773 C-128.94921892 87.95836857 -128.99460146 83.12210676 -129.03222656 78.28540039 C-129.05215241 76.20523798 -129.0793032 74.12513016 -129.11425781 72.04516602 C-129.371882 56.30357064 -128.55691868 42.49406422 -121 28.3125 C-120.65743164 27.64822998 -120.31486328 26.98395996 -119.96191406 26.29956055 C-117.12870632 20.95498179 -113.77229435 16.26011966 -109.8125 11.6875 C-109.21566406 10.89472656 -108.61882812 10.10195312 -108.00390625 9.28515625 C-99.80385931 -0.43504199 -88.55237258 -6.85794315 -76.8125 -11.3125 C-75.70132812 -11.745625 -74.59015625 -12.17875 -73.4453125 -12.625 C-48.83411721 -20.66130867 -20.61845553 -15.28926471 0 0 Z M-94.8125 20.6875 C-95.44929688 21.30238281 -96.08609375 21.91726562 -96.7421875 22.55078125 C-115.81687456 42.3460676 -112.8125 71.48506839 -112.8125 96.6875 C-70.5725 96.6875 -28.3325 96.6875 15.1875 96.6875 C16.19131899 53.80683089 16.19131899 53.80683089 -4.125 18.875 C-17.43859208 6.17560348 -34.18548834 1.07598414 -52.4453125 1.41015625 C-68.93379532 2.14959959 -83.28995338 9.02443452 -94.8125 20.6875 Z M-161 121.875 C-166.87688176 129.24647726 -167.49538664 138.328889 -168.41796875 147.421875 C-168.61136589 149.21615936 -168.61136589 149.21615936 -168.80867004 151.04669189 C-169.07787442 153.56074369 -169.34233696 156.07530732 -169.60229492 158.59033203 C-170.00028442 162.44025133 -170.4119201 166.28851847 -170.82617188 170.13671875 C-171.08672645 172.5858537 -171.34651863 175.03506989 -171.60546875 177.484375 C-171.78821602 179.20790192 -171.78821602 179.20790192 -171.97465515 180.96624756 C-172.08509659 182.03796204 -172.19553802 183.10967651 -172.30932617 184.21386719 C-172.40686691 185.15268738 -172.50440765 186.09150757 -172.60490417 187.05877686 C-172.80673535 189.61450404 -172.84984375 192.12507713 -172.8125 194.6875 C-172.11125 195.0278125 -171.41 195.368125 -170.6875 195.71875 C-159.32881201 201.521558 -152.15325291 208.51732988 -147.8125 220.6875 C-147.17204443 223.54624665 -146.76141643 226.42029362 -146.36791992 229.32226562 C-146.24536677 230.1820829 -146.12281363 231.04190018 -145.99654675 231.92777252 C-144.25441754 244.35811093 -142.75295561 256.82162858 -141.23828125 269.28125 C-141.073931 270.63051217 -140.90954961 271.97977055 -140.74513817 273.32902527 C-139.97329315 279.66645825 -139.20420156 286.0042178 -138.43856555 292.34240389 C-137.56495017 299.57363189 -136.68151994 306.80357375 -135.78984195 314.03259611 C-135.09342117 319.68405451 -134.40636648 325.33660611 -133.72598332 330.99001741 C-133.32271187 334.33902156 -132.91456036 337.68723048 -132.49874306 341.03471375 C-131.0135168 353.01627296 -129.54347052 364.94594739 -129.46166992 377.03320312 C-129.4531944 377.81847633 -129.44471888 378.60374954 -129.43598652 379.41281891 C-129.5195399 386.31200946 -131.54326251 391.60993392 -134.8125 397.6875 C-135.1425 398.6775 -135.4725 399.6675 -135.8125 400.6875 C-109.12615136 400.73424667 -82.43980886 400.76950194 -55.75342751 400.79112434 C-43.36213435 400.8014314 -30.97086666 400.81548088 -18.57958984 400.83837891 C-7.77778429 400.85833019 3.02400282 400.87122058 13.82582629 400.87567699 C19.54385386 400.87828141 25.26182868 400.88439116 30.97983932 400.89896011 C36.36582107 400.91257144 41.75172851 400.91671545 47.13772583 400.91371536 C49.11052479 400.91426394 51.08332633 400.91822015 53.05611038 400.92591095 C72.11771029 401.60537139 72.11771029 401.60537139 88.1875 392.6875 C95.72845943 383.83343818 94.75734539 374.11105956 94.01275229 363.10434723 C93.4443797 356.28883593 92.68764558 349.4930373 91.94018555 342.6953125 C91.69800475 340.4316542 91.45659196 338.16791362 91.21588135 335.90409851 C90.56509921 329.80665136 89.90294676 323.71049092 89.23806739 317.6145668 C88.68272678 312.51259979 88.13319904 307.41001353 87.58368713 302.30741596 C86.21373661 289.58676789 84.83300641 276.8673244 83.44696549 264.14842188 C82.32048172 253.80874494 81.20412077 243.468015 80.0949707 233.12646484 C78.802959 221.07996298 77.50414729 209.03423145 76.19558936 196.9895134 C75.50435192 190.62669532 74.81587284 184.2636114 74.13458824 177.89971924 C73.49436694 171.92321108 72.84436171 165.94784598 72.18685913 159.9732151 C71.94758507 157.78428161 71.71170109 155.59497442 71.47950172 153.40527916 C71.16139712 150.4107696 70.83091349 147.41787133 70.49736023 144.42504883 C70.40882505 143.56405138 70.32028986 142.70305393 70.2290718 141.81596565 C69.11527406 132.09606266 66.68658845 124.29028305 59.1875 117.6875 C52.44238246 113.182074 45.82627875 112.54939831 37.8125 112.625 C35.62625 112.645625 33.44 112.66625 31.1875 112.6875 C31.1875 120.6075 31.1875 128.5275 31.1875 136.6875 C35.72851562 136.93164062 35.72851562 136.93164062 40.26953125 137.17578125 C43.1875 137.6875 43.1875 137.6875 45.05078125 138.98046875 C46.42194519 141.03957061 46.5904571 142.22727524 46.5625 144.6875 C46.57023438 145.368125 46.57796875 146.04875 46.5859375 146.75 C46.06633583 149.27669049 45.17258835 150.07080067 43.1875 151.6875 C40.13887475 151.98597993 37.29889905 152.10771845 34.25 152.0859375 C33.37351807 152.08880768 32.49703613 152.09167786 31.59399414 152.09463501 C29.74136712 152.09667598 27.88871858 152.09114378 26.03613281 152.07861328 C23.19807821 152.06255984 20.36144773 152.07846055 17.5234375 152.09765625 C15.72395519 152.09567382 13.92447376 152.09183016 12.125 152.0859375 C11.27494385 152.09201019 10.4248877 152.09808289 9.54907227 152.1043396 C3.61216462 152.03335615 3.61216462 152.03335615 1.46459961 150.28433228 C-0.1256228 148.29598427 -0.21615934 147.20952235 -0.1875 144.6875 C-0.19523438 144.006875 -0.20296875 143.32625 -0.2109375 142.625 C0.32486084 140.01954927 0.99955561 139.2057591 3.1875 137.6875 C6.10546875 137.17578125 6.10546875 137.17578125 9.375 137 C11.293125 136.896875 13.21125 136.79375 15.1875 136.6875 C15.1875 128.7675 15.1875 120.8475 15.1875 112.6875 C-27.0525 112.6875 -69.2925 112.6875 -112.8125 112.6875 C-112.8125 120.6075 -112.8125 128.5275 -112.8125 136.6875 C-108.27148438 136.93164062 -108.27148438 136.93164062 -103.73046875 137.17578125 C-100.8125 137.6875 -100.8125 137.6875 -98.94921875 138.98046875 C-97.57805481 141.03957061 -97.4095429 142.22727524 -97.4375 144.6875 C-97.42589844 145.7084375 -97.42589844 145.7084375 -97.4140625 146.75 C-97.93366417 149.27669049 -98.82741165 150.07080067 -100.8125 151.6875 C-103.86112525 151.98597993 -106.70110095 152.10771845 -109.75 152.0859375 C-110.62648193 152.08880768 -111.50296387 152.09167786 -112.40600586 152.09463501 C-114.25863288 152.09667598 -116.11128142 152.09114378 -117.96386719 152.07861328 C-120.80192179 152.06255984 -123.63855227 152.07846055 -126.4765625 152.09765625 C-128.27604481 152.09567382 -130.07552624 152.09183016 -131.875 152.0859375 C-132.72505615 152.09201019 -133.5751123 152.09808289 -134.45092773 152.1043396 C-140.38783538 152.03335615 -140.38783538 152.03335615 -142.53540039 150.28433228 C-144.1256228 148.29598427 -144.21615934 147.20952235 -144.1875 144.6875 C-144.19523437 144.006875 -144.20296875 143.32625 -144.2109375 142.625 C-143.67513916 140.01954927 -143.00044439 139.2057591 -140.8125 137.6875 C-137.89453125 137.17578125 -137.89453125 137.17578125 -134.625 137 C-132.706875 136.896875 -130.78875 136.79375 -128.8125 136.6875 C-128.8125 128.7675 -128.8125 120.8475 -128.8125 112.6875 C-146.68191091 112.22540381 -146.68191091 112.22540381 -161 121.875 Z M-330.625 218.25 C-336.38288447 225.81529459 -336.55606928 238.00548806 -337.62182617 247.11254883 C-337.77832138 248.39718521 -337.93481659 249.68182159 -338.09605408 251.00538635 C-338.52042599 254.49233653 -338.93516368 257.98036632 -339.34754729 261.46875215 C-339.69485033 264.39853822 -340.04707886 267.3277238 -340.39929277 270.2569229 C-341.23134489 277.1770621 -342.05564487 284.0980933 -342.87475586 291.01977539 C-343.71514314 298.12028357 -344.56750094 305.21927975 -345.42599887 312.31761914 C-346.16716779 318.44890918 -346.90135028 324.58100825 -347.62998372 330.71380061 C-348.06326111 334.36035749 -348.49889443 338.00658795 -348.94106102 341.65207863 C-349.43464701 345.72497921 -349.91359416 349.79948061 -350.39135742 353.87426758 C-350.5362561 355.05448486 -350.68115479 356.23470215 -350.83044434 357.45068359 C-353.20511817 373.69479628 -353.20511817 373.69479628 -349.21484375 388.9765625 C-343.09956546 396.4375427 -337.29693659 399.50716391 -327.8125 400.6875 C-325.55617883 400.7754265 -323.29774993 400.81790991 -321.03971863 400.82121277 C-320.07352874 400.8246111 -320.07352874 400.8246111 -319.08781987 400.82807809 C-316.94939701 400.83436133 -314.81103844 400.83359241 -312.67260742 400.83276367 C-311.13116881 400.83575871 -309.58973095 400.83916204 -308.04829407 400.84294128 C-303.8746125 400.85175042 -299.70095146 400.8541181 -295.5272615 400.85475707 C-292.91583466 400.85546933 -290.30441299 400.85760699 -287.69298744 400.86025429 C-278.57160742 400.86949754 -269.45024198 400.87359046 -260.32885742 400.87280273 C-251.84411163 400.87220223 -243.35942947 400.88275124 -234.87469977 400.8985464 C-227.57509666 400.91164812 -220.27551429 400.91698553 -212.97589952 400.91634732 C-208.6228434 400.91609311 -204.26984388 400.91890196 -199.91679955 400.92952538 C-195.82014805 400.93925075 -191.72360674 400.93925529 -187.62695122 400.93200874 C-186.12985319 400.9309684 -184.63274814 400.93329285 -183.13566208 400.9393692 C-166.02603868 401.16668766 -166.02603868 401.16668766 -151.8125 392.6875 C-144.48763432 384.0871602 -145.29364768 374.87914504 -146.06345558 364.20908546 C-146.41177913 360.75793678 -146.81095731 357.31709023 -147.23364258 353.87426758 C-147.38488083 352.58437424 -147.53611908 351.2944809 -147.69194031 349.96549988 C-148.10135541 346.47708663 -148.52165216 342.99007003 -148.94457078 339.50327134 C-149.38907486 335.8260506 -149.82464729 332.14776944 -150.26164246 328.46965027 C-150.99604975 322.30037457 -151.73767668 316.13199936 -152.48364258 309.96411133 C-153.34223624 302.86417349 -154.18894413 295.7628936 -155.02940637 288.66078836 C-155.84346377 281.78444465 -156.66630887 274.90917863 -157.49295616 268.034338 C-157.84226129 265.12790749 -158.18850855 262.22113789 -158.53217506 259.31403542 C-159.01355989 255.24576099 -159.50777902 251.17914104 -160.00317383 247.11254883 C-160.21141281 245.33311386 -160.21141281 245.33311386 -160.42385864 243.51773071 C-162.18211609 226.76019738 -162.18211609 226.76019738 -171.8125 213.6875 C-180.37435367 208.58016816 -189.01641322 208.53831767 -198.73364258 208.54223633 C-199.92950485 208.53887772 -201.12536713 208.5355191 -202.35746765 208.53205872 C-205.6262174 208.52420347 -208.89492895 208.52088212 -212.16368699 208.52024293 C-214.20975594 208.5195303 -216.2558183 208.51739194 -218.3018856 208.51474571 C-225.4510172 208.50550395 -232.6001302 208.50140931 -239.74926758 208.50219727 C-246.39528326 208.50279757 -253.04121764 208.49225199 -259.68721277 208.4764536 C-265.4080254 208.46334297 -271.12881159 208.45801485 -276.84963912 208.45865268 C-280.25979741 208.45890665 -283.66988341 208.45611134 -287.08002663 208.44547462 C-290.88781052 208.43565205 -294.69538642 208.43856194 -298.50317383 208.44458008 C-299.62088165 208.43896057 -300.73858948 208.43334106 -301.89016724 208.42755127 C-313.53016519 208.4741809 -321.90804812 210.30788829 -330.625 218.25 Z " fill="#1C1C1A" transform="translate(384.8125,55.3125)"/>
<path d="M0 0 C0.66 -0.0103125 1.32 -0.020625 2 -0.03125 C4.93840763 0.74926453 6.09482797 2.15667252 8 4.5 C8.51416016 7.33398438 8.51416016 7.33398438 8.5390625 10.59375 C8.56226562 11.79 8.58546875 12.98625 8.609375 14.21875 C8.61453125 15.4665625 8.6196875 16.714375 8.625 18 C8.78838516 33.42355954 9.26036565 48.43463695 20.25 60.4375 C28.98981926 68.36521216 39.84247083 71.00839051 51.36328125 70.8125 C62.39649301 69.86442595 70.80936906 65.18340191 78.25 57.1875 C88.04788462 44.9933936 87.32923809 29.07438128 87.390625 14.21875 C87.41382813 13.0225 87.43703125 11.82625 87.4609375 10.59375 C87.46915527 9.51802734 87.47737305 8.44230469 87.48583984 7.33398438 C88.11837946 3.84750771 89.2551516 2.66870581 92 0.5 C94 -0.03125 94 -0.03125 96 0 C96.66 -0.0103125 97.32 -0.020625 98 -0.03125 C101.0201724 0.77098329 102.09432026 2.02329903 104 4.5 C104.39909845 7.36861422 104.56152328 9.8445774 104.53125 12.7109375 C104.53699036 13.91781723 104.53699036 13.91781723 104.54284668 15.14907837 C104.5455671 16.8554204 104.53819668 18.56180405 104.52148438 20.26806641 C104.50035396 22.83205072 104.52113215 25.39314218 104.546875 27.95703125 C104.57823756 46.2080459 100.20463546 60.61761658 87.4765625 74.17578125 C75.35199665 85.55451419 60.37893944 88.97107117 44.17578125 88.71484375 C28.41777179 88.13335406 15.04057941 81.15226815 4.3125 69.8125 C-6.54001404 56.76933928 -8.52824136 41.95579976 -8.44604492 25.65454102 C-8.43743573 23.04300529 -8.46654392 20.43359175 -8.49804688 17.82226562 C-8.49965685 16.15364648 -8.49908527 14.48502349 -8.49609375 12.81640625 C-8.50732773 12.04035538 -8.51856171 11.2643045 -8.53013611 10.46473694 C-8.48384737 6.88743517 -8.30128693 4.89305846 -6.09399414 2.01342773 C-3.82515433 0.37363084 -2.76670255 -0.04322973 0 0 Z " fill="#1C1C1A" transform="translate(88,287.5)"/>
</svg>
