<?xml version="1.0" encoding="UTF-8"?>
<svg version="1.1" xmlns="http://www.w3.org/2000/svg" width="96" height="96">
<path d="M0 0 C1.7114344 0.00033989 1.7114344 0.00033989 3.45744324 0.00068665 C4.6887648 0.0161705 5.92008636 0.03165436 7.1887207 0.04760742 C9.08011528 0.05397469 9.08011528 0.05397469 11.00971985 0.06047058 C14.35875138 0.0744299 17.70716954 0.10137513 21.05603027 0.13458252 C24.47455549 0.16529512 27.8931441 0.17897842 31.31176758 0.1940918 C38.01701544 0.22720394 44.72197328 0.27743599 51.42700195 0.34057617 C51.42700195 2.32057617 51.42700195 4.30057617 51.42700195 6.34057617 C33.93700195 6.67057617 16.44700195 7.00057617 -1.57299805 7.34057617 C-1.57299805 9.32057617 -1.57299805 11.30057617 -1.57299805 13.34057617 C-0.58299805 13.67057617 0.40700195 14.00057617 1.42700195 14.34057617 C1.75700195 13.35057617 2.08700195 12.36057617 2.42700195 11.34057617 C5.30444463 9.90185483 7.77266118 10.22120464 10.98803711 10.22705078 C11.66132553 10.22690475 12.33461395 10.22675873 13.02830505 10.22660828 C15.25759077 10.2273059 17.48679331 10.23509128 19.71606445 10.24291992 C21.26020258 10.24478463 22.8043413 10.24620829 24.34848022 10.24720764 C28.41570667 10.25102863 32.4828975 10.26085535 36.55010986 10.27191162 C40.69917316 10.28213473 44.8482422 10.28670719 48.99731445 10.29174805 C57.14055998 10.30247798 65.28377654 10.3195494 73.42700195 10.34057617 C72.93200195 8.85557617 72.93200195 8.85557617 72.42700195 7.34057617 C66.81700195 7.01057617 61.20700195 6.68057617 55.42700195 6.34057617 C55.42700195 4.36057617 55.42700195 2.38057617 55.42700195 0.34057617 C58.86434258 0.25353794 62.30140032 0.20017345 65.73950195 0.15307617 C66.7159668 0.12793945 67.69243164 0.10280273 68.69848633 0.0769043 C69.6362793 0.06723633 70.57407227 0.05756836 71.5402832 0.04760742 C72.40435791 0.03189697 73.26843262 0.01618652 74.15869141 0 C76.42700195 0.34057617 76.42700195 0.34057617 78.20117188 1.63623047 C79.42700195 3.34057617 79.42700195 3.34057617 79.92700195 6.90307617 C80.09200195 8.03745117 80.25700195 9.17182617 80.42700195 10.34057617 C81.41700195 11.00057617 82.40700195 11.66057617 83.42700195 12.34057617 C83.82543945 15.09057617 83.82543945 15.09057617 83.80200195 18.34057617 C83.81360352 19.94932617 83.81360352 19.94932617 83.82543945 21.59057617 C83.69395508 22.49807617 83.5624707 23.40557617 83.42700195 24.34057617 C79.84403539 26.72922055 77.29278328 26.6234485 73.1574707 26.59936523 C72.42058014 26.60286987 71.68368958 26.60637451 70.92446899 26.60998535 C68.4877176 26.61879064 66.05125633 26.61295785 63.61450195 26.60620117 C61.92203719 26.60754817 60.22957281 26.60948899 58.53710938 26.61199951 C54.98962725 26.61494914 51.44224582 26.61065832 47.89477539 26.60131836 C43.34492477 26.58992389 38.7953101 26.59648423 34.24546814 26.60846329 C30.75051085 26.61568624 27.2556096 26.61339196 23.76065063 26.6082077 C22.08289563 26.60687241 20.40513556 26.60851472 18.72738647 26.61316681 C16.38363136 26.61823921 14.04025972 26.61051196 11.6965332 26.59936523 C10.65379745 26.60543793 10.65379745 26.60543793 9.58999634 26.6116333 C5.96904252 26.57968891 4.53252649 26.41092586 1.42700195 24.34057617 C1.42700195 23.02057617 1.42700195 21.70057617 1.42700195 20.34057617 C0.33387695 20.40245117 -0.75924805 20.46432617 -1.88549805 20.52807617 C-5.57299805 20.34057617 -5.57299805 20.34057617 -7.2800293 19.26635742 C-9.24500865 16.33966612 -8.96975809 13.82218296 -8.94799805 10.34057617 C-8.95573242 9.10307617 -8.9634668 7.86557617 -8.97143555 6.59057617 C-8.57299805 3.34057617 -8.57299805 3.34057617 -7.39640808 1.65873718 C-4.86053992 -0.1744668 -3.11303183 -0.0206161 0 0 Z " fill="#A4D5A6" transform="translate(12.572998046875,37.659423828125)"/>
<path d="M0 0 C3.43734063 -0.08703823 6.87439837 -0.14040272 10.3125 -0.1875 C11.28896484 -0.21263672 12.26542969 -0.23777344 13.27148438 -0.26367188 C14.20927734 -0.27333984 15.14707031 -0.28300781 16.11328125 -0.29296875 C16.97735596 -0.3086792 17.84143066 -0.32438965 18.73168945 -0.34057617 C21.49621816 0.07450483 22.35351339 0.77610995 24 3 C24.46875 5.7421875 24.46875 5.7421875 24.5 8.875 C24.5309375 9.90367188 24.561875 10.93234375 24.59375 11.9921875 C23.98523157 15.07481377 23.22783117 16.7966899 20.93118286 18.95935059 C16.31916728 21.44461048 10.47304728 20.59030044 5.38671875 20.48828125 C4.04866357 20.47894787 2.71059123 20.47183423 1.37251282 20.46684265 C-2.13782486 20.44781319 -5.64711698 20.39875053 -9.15704346 20.34332275 C-12.74322365 20.29204083 -16.32957392 20.26930974 -19.91601562 20.24414062 C-26.9444381 20.19062549 -33.97216876 20.10536371 -41 20 C-41.66 18.68 -42.32 17.36 -43 16 C-41 14 -41 14 -38.5196228 13.75949097 C-37.47593536 13.76393219 -36.43224792 13.76837341 -35.35693359 13.77294922 C-33.58532364 13.77317581 -33.58532364 13.77317581 -31.77792358 13.77340698 C-30.49769318 13.78372955 -29.21746277 13.79405212 -27.8984375 13.8046875 C-25.93833237 13.80893234 -25.93833237 13.80893234 -23.93862915 13.81326294 C-20.46317919 13.82090224 -16.98789617 13.8405531 -13.51251221 13.8626709 C-9.96669778 13.88312304 -6.4208564 13.89226329 -2.875 13.90234375 C4.08340195 13.92379884 11.04169296 13.95793827 18 14 C17.505 10.535 17.505 10.535 17 7 C11.39 6.67 5.78 6.34 0 6 C0 4.02 0 2.04 0 0 Z " fill="#18193F" transform="translate(68,38)"/>
<path d="M0 0 C1.7114344 0.00033989 1.7114344 0.00033989 3.45744324 0.00068665 C4.6887648 0.0161705 5.92008636 0.03165436 7.1887207 0.04760742 C9.08011528 0.05397469 9.08011528 0.05397469 11.00971985 0.06047058 C14.35875138 0.0744299 17.70716954 0.10137513 21.05603027 0.13458252 C24.47455549 0.16529512 27.8931441 0.17897842 31.31176758 0.1940918 C38.01701544 0.22720394 44.72197328 0.27743599 51.42700195 0.34057617 C51.42700195 2.32057617 51.42700195 4.30057617 51.42700195 6.34057617 C33.93700195 6.67057617 16.44700195 7.00057617 -1.57299805 7.34057617 C-1.57299805 9.32057617 -1.57299805 11.30057617 -1.57299805 13.34057617 C0.40700195 14.00057617 2.38700195 14.66057617 4.42700195 15.34057617 C4.09700195 16.99057617 3.76700195 18.64057617 3.42700195 20.34057617 C1.99044342 20.42189081 0.55255365 20.47991176 -0.88549805 20.52807617 C-2.08625977 20.5802832 -2.08625977 20.5802832 -3.3112793 20.63354492 C-5.57299805 20.34057617 -5.57299805 20.34057617 -7.3425293 19.26635742 C-9.21956071 16.32865429 -8.96953677 13.78677118 -8.94799805 10.34057617 C-8.95573242 9.10307617 -8.9634668 7.86557617 -8.97143555 6.59057617 C-8.57299805 3.34057617 -8.57299805 3.34057617 -7.39640808 1.65873718 C-4.86053992 -0.1744668 -3.11303183 -0.0206161 0 0 Z " fill="#18193F" transform="translate(12.572998046875,37.659423828125)"/>
</svg>
